<svg width="26" height="40" viewBox="0 0 26 40" fill="none" xmlns="http://www.w3.org/2000/svg">
<path fill-rule="evenodd" clip-rule="evenodd" d="M8.63906 0.0251647C7.0631 -0.199589 5.76514 1.11261 5.76514 2.7046V8.46975C5.76514 10.0618 7.09112 11.3053 8.59553 11.8262C11.9814 12.9984 14.4129 16.2153 14.4129 20C14.4129 23.7849 11.9814 27.0018 8.59553 28.1739C7.09112 28.6947 5.76514 29.9383 5.76514 31.5303V37.2955C5.76514 38.8875 7.0631 40.1997 8.63906 39.9748C18.4219 38.5799 25.9431 30.1683 25.9431 20C25.9431 9.83176 18.4219 1.42019 8.63906 0.0251647Z" fill="#4ECDC4"/>
<mask id="mask0_75_5003" style="mask-type:luminance" maskUnits="userSpaceOnUse" x="0" y="0" width="21" height="40">
<path fill-rule="evenodd" clip-rule="evenodd" d="M2.87401 0.0251647C1.29796 -0.199589 0 1.11261 0 2.7046V8.46974C0 10.0618 1.32598 11.3053 2.8304 11.8262C6.21638 12.9984 8.64771 16.2153 8.64771 20C8.64771 23.7848 6.21638 27.0018 2.8304 28.1739C1.32598 28.6947 0 29.9383 0 31.5303V37.2955C0 38.8875 1.29796 40.1997 2.87401 39.9748C12.6568 38.5799 20.178 30.1683 20.178 20C20.178 9.83176 12.6568 1.42019 2.87401 0.0251647Z" fill="white"/>
</mask>
<g mask="url(#mask0_75_5003)">
<path d="M-2.30615 2.70485V8.47H2.30596V2.70485H-2.30615ZM2.07582 14.0055C4.56181 14.8662 6.34156 17.2284 6.34156 20.0003H10.9537C10.9537 15.2027 7.87077 11.1311 3.58476 9.64724L2.07582 14.0055ZM6.34156 20.0003C6.34156 22.7722 4.56181 25.1344 2.07582 25.9952L3.58476 30.3533C7.87077 28.8694 10.9537 24.7977 10.9537 20.0003H6.34156ZM-2.30615 31.5306V37.2957H2.30596V31.5306H-2.30615ZM3.19947 42.2581C14.1023 40.7035 22.484 31.3325 22.484 20.0003H17.8719C17.8719 29.0046 11.2108 36.4569 2.54836 37.6924L3.19947 42.2581ZM22.484 20.0003C22.484 8.66797 14.1023 -0.70278 3.19947 -2.25755L2.54836 2.30838C11.2108 3.54365 17.8719 10.9961 17.8719 20.0003H22.484ZM-2.30615 37.2957C-2.30615 40.0575 0.0128193 42.7126 3.19947 42.2581L2.54836 37.6924C2.51567 37.697 2.50385 37.6924 2.49979 37.6909C2.49177 37.6883 2.46992 37.6791 2.44012 37.6506C2.37561 37.5889 2.30596 37.4658 2.30596 37.2957H-2.30615ZM2.07582 25.9952C0.0893798 26.6827 -2.30615 28.5543 -2.30615 31.5306H2.30596C2.30596 31.4118 2.34785 31.2337 2.56199 30.9967C2.78833 30.7462 3.15056 30.5038 3.58476 30.3533L2.07582 25.9952ZM-2.30615 8.47C-2.30615 11.4462 0.0893798 13.3178 2.07582 14.0055L3.58476 9.64724C3.15056 9.49691 2.78833 9.25434 2.56199 9.00385C2.34785 8.76684 2.30596 8.5887 2.30596 8.47H-2.30615ZM2.30596 2.70485C2.30596 2.53495 2.37561 2.41184 2.44012 2.35009C2.46992 2.32159 2.49177 2.31225 2.49979 2.30954C2.50385 2.30818 2.51567 2.30371 2.54836 2.30838L3.19947 -2.25755C0.0128481 -2.71196 -2.30615 -0.0568244 -2.30615 2.70485H2.30596Z" fill="url(#paint0_linear_75_5003)"/>
</g>
<defs>
<linearGradient id="paint0_linear_75_5003" x1="-4.27924" y1="9.64896" x2="24.6447" y2="13.0733" gradientUnits="userSpaceOnUse">
<stop stop-color="#BC3CD8"/>
<stop offset="1" stop-color="#FF6B6B"/>
</linearGradient>
</defs>
</svg>
