<svg width="43" height="27" viewBox="0 0 43 27" fill="none" xmlns="http://www.w3.org/2000/svg">
<path d="M12.2837 0C13.5305 0 14.6524 0.107956 15.6811 0.328102C16.7035 0.54613 17.5756 0.905983 18.3123 1.40343C19.0383 1.90087 19.6056 2.56131 20.0142 3.39108C20.41 4.21028 20.6069 5.2348 20.6069 6.4456C20.6069 7.758 20.3105 8.8545 19.7157 9.72873C19.1167 10.6051 18.234 11.3227 17.057 11.8773C18.6594 12.3408 19.8469 13.1516 20.6344 14.3031C21.4261 15.4652 21.8134 16.8559 21.8134 18.4858C21.8134 19.8088 21.5615 20.9455 21.0556 21.9002C20.5681 22.8407 19.8608 23.6496 18.9939 24.2583C18.0959 24.8836 17.0928 25.3425 16.0325 25.6131C14.9208 25.9049 13.776 26.0514 12.6266 26.0491H0V0H12.2837ZM11.5407 10.5246C12.5567 10.5246 13.3992 10.2833 14.0639 9.79435C14.7243 9.31172 15.044 8.51581 15.044 7.42567C15.044 6.82027 14.936 6.32071 14.7243 5.9291C14.5181 5.55236 14.2129 5.23909 13.8416 5.02312C13.4531 4.79266 13.0242 4.63822 12.5779 4.56801C12.0915 4.47729 11.5973 4.43405 11.1025 4.43889H5.73648V10.5246H11.5407ZM11.8603 21.6145C12.4255 21.6145 12.9632 21.5658 13.4691 21.4515C13.9792 21.3414 14.4322 21.1636 14.8175 20.899C15.2027 20.645 15.5202 20.2999 15.7489 19.8596C15.9796 19.4236 16.0918 18.8542 16.0918 18.1705C16.0918 16.8284 15.7129 15.8737 14.9635 15.2959C14.2121 14.7243 13.2045 14.4407 11.9704 14.4407H5.73648V21.6166H11.8603V21.6145ZM29.9906 21.5277C30.7674 22.2855 31.8872 22.6665 33.3435 22.6665C34.3871 22.6665 35.2889 22.4019 36.0488 21.8769C36.7981 21.3499 37.2554 20.7868 37.431 20.2047H41.9927C41.2603 22.4739 40.149 24.0953 38.6291 25.0712C37.1283 26.0512 35.3016 26.5381 33.1678 26.5381C31.6819 26.5381 30.3441 26.2989 29.146 25.8247C27.996 25.3769 26.9568 24.685 26.0999 23.7969C25.2572 22.888 24.6057 21.819 24.1842 20.6534C23.7209 19.3645 23.4915 18.0032 23.5069 16.6337C23.5069 15.2239 23.7418 13.9051 24.2033 12.688C24.6413 11.5114 25.314 10.4362 26.1804 9.52763C27.0376 8.63859 28.0537 7.93793 29.237 7.42355C30.4813 6.90023 31.8202 6.63937 33.17 6.65728C34.766 6.65728 36.161 6.96633 37.3591 7.58866C38.5209 8.18273 39.5284 9.0394 40.3014 10.0907C41.0698 11.1343 41.618 12.3303 41.9588 13.6702C42.2996 15.008 42.4182 16.4051 42.3208 17.8678H28.7078C28.7099 19.358 29.2116 20.7699 29.9906 21.5277ZM35.9429 11.619C35.327 10.9374 34.2855 10.5691 33.0112 10.5691C32.1835 10.5691 31.4998 10.7067 30.9495 10.9903C30.4462 11.2445 29.9998 11.5981 29.6371 12.0297C29.3185 12.4215 29.0823 12.8737 28.9428 13.359C28.8207 13.7637 28.7419 14.1802 28.7078 14.6016H37.1368C37.014 13.2807 36.561 12.3048 35.9429 11.619ZM27.6494 1.74846H38.21V4.32035H27.6494V1.74846Z" fill="#E3E4E6"/>
</svg>
