<svg width="33" height="33" viewBox="0 0 33 33" fill="none" xmlns="http://www.w3.org/2000/svg">
<path d="M15.1938 20.5562L12.65 23.1C12.1137 23.6362 11.2612 23.6362 10.7112 23.1137C10.56 22.9625 10.4088 22.825 10.2575 22.6737C8.84125 21.2437 7.5625 19.745 6.42125 18.1775C5.29375 16.61 4.38625 15.0425 3.72625 13.4888C3.08 11.9213 2.75 10.4225 2.75 8.9925C2.75 8.0575 2.915 7.16375 3.245 6.33875C3.575 5.5 4.0975 4.73 4.82625 4.0425C5.70625 3.17625 6.66875 2.75 7.68625 2.75C8.07125 2.75 8.45625 2.8325 8.8 2.9975C9.1575 3.1625 9.47375 3.41 9.72125 3.7675L12.9113 8.26375C13.1588 8.6075 13.3375 8.92375 13.4613 9.22625C13.585 9.515 13.6538 9.80375 13.6538 10.065C13.6538 10.395 13.5575 10.725 13.365 11.0412C13.1863 11.3575 12.925 11.6875 12.595 12.0175L11.55 13.1037C11.3987 13.255 11.33 13.4338 11.33 13.6538C11.33 13.7638 11.3438 13.86 11.3713 13.97C11.4125 14.08 11.4538 14.1625 11.4813 14.245C11.7288 14.6987 12.155 15.29 12.76 16.005C13.3787 16.72 14.0387 17.4488 14.7537 18.1775C14.8912 18.315 15.0425 18.4525 15.18 18.59C15.73 19.1263 15.7438 20.0063 15.1938 20.5562Z" fill="#E3E4E6"/>
<path d="M30.2089 25.2037C30.2089 25.5887 30.1402 25.9874 30.0027 26.3724C29.9614 26.4824 29.9202 26.5924 29.8652 26.7024C29.6314 27.1974 29.3289 27.6649 28.9302 28.1049C28.2564 28.8474 27.5139 29.3837 26.6752 29.7274C26.6614 29.7274 26.6477 29.7412 26.6339 29.7412C25.8227 30.0712 24.9427 30.2499 23.9939 30.2499C22.5914 30.2499 21.0927 29.9199 19.5114 29.2462C17.9302 28.5724 16.3489 27.6649 14.7814 26.5237C14.2452 26.1249 13.7089 25.7262 13.2002 25.2999L17.6964 20.8037C18.0814 21.0924 18.4252 21.3124 18.7139 21.4637C18.7827 21.4912 18.8652 21.5324 18.9614 21.5737C19.0714 21.6149 19.1814 21.6287 19.3052 21.6287C19.5389 21.6287 19.7177 21.5462 19.8689 21.3949L20.9139 20.3637C21.2577 20.0199 21.5877 19.7587 21.9039 19.5937C22.2202 19.4012 22.5364 19.3049 22.8802 19.3049C23.1414 19.3049 23.4164 19.3599 23.7189 19.4837C24.0214 19.6074 24.3377 19.7862 24.6814 20.0199L29.2327 23.2512C29.5902 23.4987 29.8377 23.7874 29.9889 24.1312C30.1264 24.4749 30.2089 24.8187 30.2089 25.2037Z" fill="#E3E4E6"/>
</svg>
