<svg width="40" height="40" viewBox="0 0 40 40" fill="none" xmlns="http://www.w3.org/2000/svg">
<path d="M38 20C38.003 22.3709 37.5362 24.7189 36.6265 26.9083C35.7168 29.0977 34.3822 31.0851 32.6999 32.7557C31.0313 34.4213 29.0509 35.7418 26.8718 36.6416C24.6927 37.5414 22.3576 38.003 20 38C10.0586 38 2.00002 29.9414 2.00002 20C1.99372 15.3846 3.7666 10.9443 6.95001 7.60251C8.62972 5.83005 10.6534 4.41898 12.8973 3.45566C15.1412 2.49233 17.5581 1.99702 20 2.00002C22.3576 1.99696 24.6927 2.45855 26.8718 3.35839C29.0509 4.25824 31.0313 5.5787 32.6999 7.24431M38 20C38.003 17.6291 37.5362 15.2811 36.6265 13.0917C35.7168 10.9023 34.3822 8.91491 32.6999 7.24431M38 20C35.3738 20 28.1288 19.0098 21.6444 21.8565C14.6001 24.9498 9.49976 29.7477 7.27676 32.7321M38 20C38 22.2167 37.5994 24.3387 36.8659 26.2998M32.6999 7.24431C31.1149 5.66503 29.2498 4.39435 27.1999 3.49747M13.25 3.30886C16.067 5.90896 22.214 12.5293 24.5 19.1002C26.786 25.672 27.632 33.7522 28.154 36.0517M2.13872 17.7501C5.53892 17.9553 14.5398 18.1398 20.2998 15.6801C26.0598 13.2204 31.0161 8.69611 32.7162 7.26061M3.34995 26.8517C4.93603 30.691 7.79658 33.8665 11.4499 35.8436" stroke="#E3E4E6" stroke-width="3.6" stroke-linecap="round" stroke-linejoin="round"/>
</svg>
