<svg width="32" height="32" viewBox="0 0 32 32" fill="none" xmlns="http://www.w3.org/2000/svg">
<path d="M30 16C30.0024 17.844 29.6393 19.6702 28.9317 21.3731C28.2242 23.076 27.1862 24.6217 25.8777 25.9211C24.5799 27.2166 23.0396 28.2436 21.3447 28.9435C19.6499 29.6433 17.8337 30.0024 16 30C8.26781 30 2.00001 23.7322 2.00001 16C1.99512 12.4102 3.37402 8.95671 5.85001 6.35751C7.15645 4.97893 8.73045 3.88143 10.4757 3.13218C12.2209 2.38293 14.1007 1.99768 16 2.00001C17.8337 1.99764 19.6499 2.35665 21.3447 3.05653C23.0396 3.75641 24.5799 4.78343 25.8777 6.07891M30 16C30.0024 14.156 29.6393 12.3298 28.9317 10.6269C28.2242 8.92404 27.1862 7.37826 25.8777 6.07891M30 16C27.9574 16 22.3224 15.2299 17.2789 17.444C11.8 19.8499 7.83315 23.5816 6.10415 25.9028M30 16C30 17.7241 29.6884 19.3746 29.1179 20.8999M25.8777 6.07891C24.6449 4.85058 23.1943 3.86227 21.5999 3.1647M10.75 3.018C12.941 5.0403 17.722 10.1895 19.5 15.3002C21.278 20.4116 21.936 26.6962 22.342 28.4847M2.1079 14.2501C4.75249 14.4097 11.7532 14.5532 16.2332 12.6401C20.7132 10.727 24.5681 7.20808 25.8904 6.09159M3.04996 21.3291C4.28358 24.3152 6.50845 26.785 9.34996 28.3228" stroke="#E3E4E6" stroke-opacity="0.55" stroke-width="2.8" stroke-linecap="round" stroke-linejoin="round"/>
</svg>
