<svg width="38" height="35" viewBox="0 0 38 35" fill="none" xmlns="http://www.w3.org/2000/svg">
<path fill-rule="evenodd" clip-rule="evenodd" d="M14.1152 11.9172H21.1718V15.0807C22.1883 13.2612 24.7951 11.6265 28.711 11.6265C36.2179 11.6265 38.0001 15.2482 38.0001 21.8933V34.2002H30.4001V23.4067C30.4001 19.6224 29.3836 17.4883 26.7958 17.4883C23.2067 17.4883 21.7152 19.7883 21.7152 23.405V34.2002H14.1152V11.9172Z" fill="#E3E4E6"/>
<path fill-rule="evenodd" clip-rule="evenodd" d="M1.08301 33.9095H8.68301V11.6265H1.08301V33.9095Z" fill="#E3E4E6"/>
<path fill-rule="evenodd" clip-rule="evenodd" d="M9.7717 4.3605C9.77198 4.93382 9.64565 5.50147 9.40004 6.03047C9.15442 6.55946 8.79444 7.03924 8.341 7.44192C7.42216 8.26379 6.17844 8.72383 4.883 8.721C3.58984 8.72022 2.34899 8.26135 1.4288 7.44363C0.977002 7.03958 0.618233 6.55926 0.373053 6.0302C0.127873 5.50114 0.00110035 4.93374 0 4.3605C0 3.20283 0.513 2.09475 1.4307 1.27737C2.35008 0.458551 3.59146 -0.000511651 4.8849 4.27953e-07C6.1807 4.27953e-07 7.4233 0.459991 8.341 1.27737C9.2568 2.09475 9.7717 3.20283 9.7717 4.3605Z" fill="#E3E4E6"/>
</svg>
