<svg width="38" height="31" viewBox="0 0 38 31" fill="none" xmlns="http://www.w3.org/2000/svg">
<path d="M38 8.75513V24.2249C38.0001 25.8022 37.3966 27.3197 36.3134 28.4662C35.2302 29.6126 33.7493 30.3011 32.1746 30.3904L31.825 30.3999H6.175C4.59774 30.4 3.08023 29.7966 1.93376 28.7134C0.787297 27.6301 0.0987975 26.1493 0.00950022 24.5745L0 24.2249V8.75513L18.3388 18.3615C18.5428 18.4684 18.7697 18.5242 19 18.5242C19.2303 18.5242 19.4572 18.4684 19.6612 18.3615L38 8.75513Z" fill="#E3E4E6"/>
<path d="M6.17487 4.48497e-08H31.8249C33.3555 -0.000184328 34.8316 0.568092 35.9669 1.59461C37.1023 2.62112 37.8159 4.03272 37.9695 5.5556L18.9999 15.4926L0.0302734 5.5556C0.177568 4.09319 0.841668 2.73128 1.9032 1.71468C2.96473 0.698076 4.35407 0.0934553 5.82147 0.00950026L6.17487 4.48497e-08H31.8249H6.17487Z" fill="#E3E4E6"/>
</svg>
